<?xml version="1.0" standalone="no"?>
<!DOCTYPE svg PUBLIC "-//W3C//DTD SVG 20010904//EN"
 "http://www.w3.org/TR/2001/REC-SVG-20010904/DTD/svg10.dtd">
<svg version="1.0" xmlns="http://www.w3.org/2000/svg"
 width="198.000000pt" height="198.000000pt" viewBox="0 0 198.000000 198.000000"
 preserveAspectRatio="xMidYMid meet">
<metadata>
Created by potrace 1.16, written by Peter Selinger 2001-2019
</metadata>
<g transform="translate(0.000000,198.000000) scale(0.100000,-0.100000)"
fill="#000000" stroke="none">
<path d="M330 1210 l0 -40 245 0 245 0 0 40 0 40 -245 0 -245 0 0 -40z"/>
<path d="M330 931 l0 -131 40 0 40 0 0 58 0 57 26 -42 c18 -30 32 -43 48 -43
16 0 29 12 47 43 l24 42 3 -57 3 -58 39 0 40 0 0 130 0 130 -37 0 c-36 0 -40
-3 -78 -70 l-41 -69 -40 67 c-37 61 -43 67 -77 70 l-37 3 0 -130z"/>
<path d="M936 1038 c-59 -53 -35 -112 54 -138 28 -8 50 -19 48 -25 -4 -12 -51
-12 -89 -1 -23 7 -28 4 -37 -24 -10 -28 -9 -32 14 -40 14 -6 52 -10 84 -10 48
0 64 4 89 26 36 30 41 74 12 103 -10 10 -42 24 -70 31 -30 7 -50 17 -48 24 4
12 50 14 82 3 17 -6 23 -1 32 23 10 26 9 32 -7 40 -10 6 -46 10 -79 10 -48 0
-65 -4 -85 -22z"/>
<path d="M1280 1020 c0 -20 -5 -30 -15 -30 -10 0 -15 -10 -15 -30 0 -19 5 -30
14 -30 9 0 15 -16 19 -47 6 -58 33 -83 88 -83 21 0 40 4 43 8 10 17 -7 52 -25
52 -15 0 -19 7 -19 35 0 28 4 35 20 35 16 0 20 7 20 30 0 23 -4 30 -20 30 -16
0 -20 7 -20 30 0 29 -2 30 -45 30 -43 0 -45 -1 -45 -30z"/>
<path d="M1503 999 c-60 -17 -92 -94 -63 -150 18 -32 68 -52 122 -47 62 6 78
20 54 47 -13 14 -26 18 -55 14 -23 -3 -41 -1 -45 6 -5 8 14 11 63 11 l71 0 0
31 c0 33 -46 89 -73 89 -9 0 -21 2 -29 4 -7 2 -27 0 -45 -5z"/>
<path d="M663 983 c2 -10 21 -55 41 -101 29 -66 33 -84 21 -88 -8 -3 -19 -3
-24 0 -6 4 -17 -7 -25 -23 -14 -26 -14 -30 0 -35 34 -13 83 -6 108 17 14 13
44 69 70 135 l44 112 -38 0 c-36 0 -39 -2 -56 -45 -9 -25 -20 -45 -24 -45 -4
0 -15 20 -24 45 -17 43 -19 45 -58 45 -34 0 -40 -3 -35 -17z"/>
<path d="M1150 900 l0 -100 45 0 45 0 0 100 0 100 -45 0 -45 0 0 -100z"/>
</g>
</svg>
